<svg width="512" height="500" viewBox="0 0 512 500" fill="none" xmlns="http://www.w3.org/2000/svg">
<path d="M131.5 227.6L91.9 235.85L116 262.85L155.6 254.6L131.5 227.6Z" fill="#0D274D"/>
<path d="M134.2 227L158.3 254L195.05 246.35L170.95 219.35L134.2 227Z" fill="#0D274D"/>
<path d="M233.2 238.4L209.1 211.4L173.65 218.8L197.75 245.8L233.2 238.4Z" fill="#0D274D"/>
<path d="M235.05 240.5L199.6 247.85L224.6 275.85L260 268.45L235.05 240.5Z" fill="#1E4471"/>
<path d="M185.15 284.05L221.85 276.4L196.9 248.45L160.15 256.1L185.15 284.05Z" fill="#1E4471"/>
<path d="M117.85 264.9L142.85 292.9L182.45 284.6L157.45 256.65L117.85 264.9Z" fill="#1E4471"/>
<path d="M171.65 325.1L211.25 316.85L184.3 286.7L144.7 294.95L171.65 325.1Z" fill="#00BCEB"/>
<path d="M223.75 278.5L187 286.15L213.95 316.3L250.65 308.65L223.75 278.5Z" fill="#00BCEB"/>
<path d="M214.2 318.7L202.6 353.95L240.1 346.15L251.7 310.9L214.2 318.7Z" fill="white"/>
<path d="M201.75 356.6L189.9 392.6L227.35 384.8L239.2 348.8L201.75 356.6Z" fill="white"/>
<path d="M226.5 387.45L189 395.25L176.8 432.4L214.25 424.6L226.5 387.45Z" fill="white"/>
<path d="M146.95 404L134.7 441.15L174.05 432.95L186.3 395.8L146.95 404Z" fill="white"/>
<path d="M187.15 393.15L199 357.2L159.65 365.4L147.8 401.4L187.15 393.15Z" fill="white"/>
<path d="M199.9 354.55L211.5 319.25L172.15 327.45L160.5 362.75L199.9 354.55Z" fill="white"/>
<path d="M132.4 440.4L144.65 403.25L117.85 373.25L105.6 410.4L132.4 440.4Z" fill="white"/>
<path d="M157.35 364.65L130.55 334.65L118.7 370.65L145.5 400.6L157.35 364.65Z" fill="white"/>
<path d="M131.45 332L158.25 362L169.85 326.7L143.05 296.75L131.45 332Z" fill="white"/>
<path d="M141.2 294.65L115.7 266.1L104.1 301.4L129.6 329.95L141.2 294.65Z" fill="white"/>
<path d="M103.2 304L91.3501 340L116.85 368.55L128.7 332.55L103.2 304Z" fill="white"/>
<path d="M116 371.2L90.5 342.65L78.25 379.8L103.75 408.35L116 371.2Z" fill="white"/>
<path d="M52.65 351.15L76.4 377.75L88.65 340.6L64.9 314L52.65 351.15Z" fill="white"/>
<path d="M89.5 337.95L101.35 301.95L77.6 275.35L65.75 311.35L89.5 337.95Z" fill="white"/>
<path d="M113.85 264.05L90.1 237.45L78.5 272.7L102.25 299.3L113.85 264.05Z" fill="white"/>
<path d="M50.15 351.05C50.05 351.517 50.1334 351.917 50.4 352.25L132 443.6C132.333 443.933 132.717 444.05 133.15 443.95L253.05 418.95C253.483 418.85 253.783 418.583 253.95 418.15L292.25 301.8C292.417 301.367 292.333 300.983 292 300.65L210.4 209.3C210.067 208.967 209.683 208.833 209.25 208.9L89.35 233.9L50.15 351.05ZM90.1 237.45L113.85 264.05L102.25 299.3L78.5 272.75L90.1 237.45ZM91.9 235.85L131.5 227.6L155.6 254.6L116 262.85L91.9 235.85ZM158.35 254L134.2 227.05L170.9 219.35L195.05 246.35L158.35 254ZM115.7 266.1L141.2 294.65L129.6 329.9L104.1 301.4L115.7 266.1ZM117.85 264.9L157.45 256.65L182.45 284.6L142.85 292.85L117.85 264.9ZM76.4 377.75L52.65 351.15L64.9 314L88.65 340.6L76.4 377.75ZM101.35 301.95L89.5 337.95L65.75 311.35L77.6 275.35L101.35 301.95ZM91.35 340L103.2 304.05L128.75 332.55L116.85 368.55L91.35 340ZM90.5 342.65L116 371.2L103.75 408.35L78.25 379.8L90.5 342.65ZM118.75 370.65L130.6 334.65L157.35 364.6L145.5 400.6L118.75 370.65ZM158.25 362L131.45 332L143.05 296.75L169.85 326.7L158.25 362ZM209.1 211.4L233.2 238.4L197.75 245.8L173.65 218.8L209.1 211.4ZM199.6 247.85L235.05 240.5L260.05 268.45L224.6 275.85L199.6 247.85ZM221.85 276.4L185.15 284.05L160.15 256.1L196.9 248.45L221.85 276.4ZM187 286.15L223.75 278.5L250.65 308.65L213.95 316.3L187 286.15ZM189.9 392.6L201.75 356.6L239.2 348.8L227.35 384.8L189.9 392.6ZM199 357.15L187.15 393.15L147.8 401.35L159.65 365.4L199 357.15ZM230.1 384.25L241.9 348.25L276.85 340.95L265 376.95L230.1 384.25ZM189 395.25L226.5 387.4L214.25 424.6L176.8 432.4L189 395.25ZM240.1 346.15L202.6 353.95L214.25 318.7L251.7 310.9L240.1 346.15ZM211.5 319.25L199.9 354.55L160.55 362.75L172.15 327.5L211.5 319.25ZM211.25 316.85L171.65 325.1L144.7 294.95L184.3 286.7L211.25 316.85ZM289.3 303.05L277.7 338.3L242.8 345.6L254.4 310.3L289.3 303.05ZM288.8 300.7L253.4 308.1L226.45 277.9L261.85 270.55L288.8 300.7ZM229.2 386.85L264.1 379.6L251.85 416.75L217 424L229.2 386.85ZM134.7 441.15L146.95 404L186.3 395.8L174.05 432.95L134.7 441.15ZM144.65 403.25L132.4 440.4L105.6 410.4L117.85 373.3L144.65 403.25Z" fill="#CED4DA"/>
<path d="M253.4 308.1L288.8 300.7L261.85 270.55L226.45 277.9L253.4 308.1Z" fill="#00BCEB"/>
<text fill="black" xml:space="preserve" style="white-space: pre" font-family="Arial" font-size="26.35" letter-spacing="0em"><tspan x="326.695" y="351.135">Transmisi&#xf3;n</tspan></text>
<text fill="black" xml:space="preserve" style="white-space: pre" font-family="Arial" font-size="26" letter-spacing="0em"><tspan x="313.219" y="256.014">Almacenamiento</tspan></text>
<text fill="black" xml:space="preserve" style="white-space: pre" font-family="Arial" font-size="26.35" letter-spacing="0em"><tspan x="312.145" y="187.135">Procesamiento</tspan></text>
<path d="M203 218H392V202.4" stroke="#0D274D" stroke-width="3" stroke-miterlimit="10"/>
<path d="M397.05 208.4V204.05L392 199L386.9 204.05V208.4L392 203.3L397.05 208.4Z" fill="#0D274D"/>
<path d="M234 262.5H348.55" stroke="#1E4471" stroke-width="3" stroke-miterlimit="10"/>
<path d="M342.55 267.55H346.9L352 262.5L346.9 257.4H342.55L347.65 262.5L342.55 267.55Z" fill="#1E4471"/>
<path d="M264 297H391V322.55" stroke="#00BCEB" stroke-width="3" stroke-miterlimit="10"/>
<path d="M385.9 316.55V320.9L391 326L396.05 320.9V316.55L391 321.65L385.9 316.55Z" fill="#00BCEB"/>
<text fill="#00617B" xml:space="preserve" style="white-space: pre" font-family="Arial" font-size="32" letter-spacing="0em"><tspan x="27.6094" y="59.5938">La protecci&#xf3;n de informaci&#xf3;n en </tspan><tspan x="168.25" y="96.5938">cada estado</tspan></text>
</svg>
