<svg width="512" height="500" viewBox="0 0 512 500" fill="none" xmlns="http://www.w3.org/2000/svg">
<path d="M129.55 177.6L89.95 185.85L114.05 212.85L153.65 204.6L129.55 177.6Z" fill="white"/>
<path d="M193.1 196.35L169 169.35L132.25 177L156.35 204L193.1 196.35Z" fill="white"/>
<path d="M171.7 168.8L195.8 195.8L231.25 188.4L207.15 161.4L171.7 168.8Z" fill="white"/>
<path d="M233.1 190.5L197.65 197.85L222.65 225.85L258.05 218.45L233.1 190.5Z" fill="white"/>
<path d="M183.2 234.05L219.9 226.4L194.95 198.45L158.2 206.1L183.2 234.05Z" fill="white"/>
<path d="M115.9 214.9L140.9 242.9L180.5 234.6L155.5 206.65L115.9 214.9Z" fill="white"/>
<path d="M169.7 275.1L209.3 266.85L182.35 236.7L142.75 244.95L169.7 275.1Z" fill="white"/>
<path d="M185.05 236.15L212 266.3L248.7 258.65L221.8 228.5L185.05 236.15Z" fill="white"/>
<path d="M238.15 296.15L249.75 260.9L212.25 268.7L200.65 303.95L238.15 296.15Z" fill="#E2231A"/>
<path d="M225.4 334.8L237.25 298.8L199.8 306.6L187.95 342.6L225.4 334.8Z" fill="#E2231A"/>
<path d="M212.3 374.6L224.55 337.45L187.05 345.25L174.85 382.4L212.3 374.6Z" fill="#E2231A"/>
<path d="M145 354L132.75 391.15L172.1 382.95L184.35 345.8L145 354Z" fill="#6ABF4B"/>
<path d="M157.7 315.4L145.85 351.4L185.2 343.15L197.05 307.2L157.7 315.4Z" fill="#6ABF4B"/>
<path d="M209.55 269.25L170.2 277.45L158.55 312.75L197.95 304.55L209.55 269.25Z" fill="#6ABF4B"/>
<path d="M130.45 390.4L142.7 353.25L115.9 323.25L103.65 360.4L130.45 390.4Z" fill="white"/>
<path d="M143.55 350.6L155.4 314.65L128.6 284.65L116.75 320.65L143.55 350.6Z" fill="white"/>
<path d="M141.1 246.75L129.5 282L156.3 312L167.9 276.7L141.1 246.75Z" fill="white"/>
<path d="M127.65 279.95L139.25 244.65L113.75 216.1L102.15 251.4L127.65 279.95Z" fill="white"/>
<path d="M101.25 254L89.3999 290L114.9 318.55L126.75 282.55L101.25 254Z" fill="white"/>
<path d="M101.8 358.35L114.05 321.2L88.5499 292.65L76.2999 329.8L101.8 358.35Z" fill="white"/>
<path d="M100.3 249.3L111.9 214.05L88.1499 187.45L76.5499 222.7L100.3 249.3Z" fill="white"/>
<path d="M208.45 159.3C208.183 158.967 207.8 158.833 207.3 158.9L87.4 183.9L48.2 301.05C48.0666 301.417 48.15 301.817 48.45 302.25L130.05 393.6C130.383 393.933 130.767 394.05 131.2 393.95L251.1 368.95C251.533 368.85 251.833 368.583 252 368.15L290.3 251.8C290.467 251.367 290.383 250.983 290.05 250.65L208.45 159.3ZM169 169.35L193.1 196.35L156.4 204L132.25 177.05L169 169.35ZM195.8 195.8L171.7 168.8L207.15 161.4L231.25 188.4L195.8 195.8ZM197.65 197.85L233.1 190.5L258.05 218.45L222.65 225.85L197.65 197.85ZM89.95 185.85L129.55 177.6L153.65 204.6L114.05 212.85L89.95 185.85ZM99.4 251.95L87.55 287.95L63.8 261.35L75.65 225.35L99.4 251.95ZM89.4 290L101.25 254.05L126.75 282.55L114.9 318.55L89.4 290ZM111.9 214.05L100.3 249.3L76.55 222.75L88.15 187.45L111.9 214.05ZM113.75 216.1L139.25 244.65L127.65 279.9L102.15 251.4L113.75 216.1ZM115.9 214.9L155.5 206.65L180.5 234.6L140.9 242.85L115.9 214.9ZM129.5 282L141.1 246.75L167.9 276.7L156.3 312L129.5 282ZM74.45 327.75L50.7 301.15L62.95 264L86.7 290.6L74.45 327.75ZM132.75 391.15L145 354L184.35 345.8L172.1 382.95L132.75 391.15ZM142.7 353.25L130.45 390.4L103.7 360.4L115.9 323.3L142.7 353.25ZM114.05 321.2L101.8 358.35L76.3 329.8L88.55 292.65L114.05 321.2ZM145.85 351.35L157.7 315.4L197.05 307.15L185.2 343.15L145.85 351.35ZM143.55 350.6L116.75 320.65L128.65 284.65L155.4 314.6L143.55 350.6ZM287.35 253.05L275.75 288.3L240.85 295.6L252.45 260.3L287.35 253.05ZM259.95 220.55L286.85 250.7L251.45 258.1L224.5 227.9L259.95 220.55ZM219.95 226.4L183.2 234.05L158.25 206.1L194.95 198.45L219.95 226.4ZM212 266.3L185.05 236.15L221.75 228.5L248.75 258.65L212 266.3ZM170.2 277.5L209.55 269.25L197.95 304.55L158.55 312.75L170.2 277.5ZM209.3 266.85L169.7 275.1L142.75 244.95L182.35 236.7L209.3 266.85ZM228.15 334.25L240 298.25L274.9 290.95L263 326.95L228.15 334.25ZM237.25 298.8L225.4 334.8L187.95 342.6L199.8 306.6L237.25 298.8ZM215.05 374L227.25 336.85L262.15 329.6L249.95 366.75L215.05 374ZM212.3 374.6L174.85 382.4L187.05 345.25L224.55 337.4L212.3 374.6ZM238.15 296.15L200.65 303.95L212.25 268.7L249.75 260.9L238.15 296.15Z" fill="#CED4DA"/>
<path d="M240 298.25L228.15 334.25L263 326.95L274.9 290.95L240 298.25Z" fill="#FFCC00"/>
<path d="M227.25 336.85L215.05 374L249.95 366.75L262.15 329.6L227.25 336.85Z" fill="#FFCC00"/>
<path d="M287.35 253.05L252.45 260.3L240.85 295.6L275.75 288.3L287.35 253.05Z" fill="#FFCC00"/>
<path d="M286.85 250.7L259.9 220.55L224.5 227.9L251.45 258.1L286.85 250.7Z" fill="white"/>
<text fill="black" xml:space="preserve" style="white-space: pre" font-family="Arial" font-size="26.35" letter-spacing="0em"><tspan x="319.872" y="179.135">Awareness, </tspan><tspan x="301.28" y="209.135">capacitaci&#xf3;n y &#10;</tspan><tspan x="328.389" y="239.135">educaci&#xf3;n</tspan></text>
<text fill="black" xml:space="preserve" style="white-space: pre" font-family="Arial" font-size="26.35" letter-spacing="0em"><tspan x="317.722" y="350.135">Tecnolog&#xed;a</tspan></text>
<text fill="black" xml:space="preserve" style="white-space: pre" font-family="Arial" font-size="26.35" letter-spacing="0em"><tspan x="308" y="428.135">Pol&#xed;tica y </tspan><tspan x="308" y="458.135">procedimiento</tspan></text>
<path d="M158 369V436H299.6" stroke="#6ABF4B" stroke-width="3" stroke-miterlimit="10"/>
<path d="M293.6 441.05H297.95L303 436L297.95 430.9H293.6L298.7 436L293.6 441.05Z" fill="#6ABF4B"/>
<path d="M201.5 368.5V394.5H391.5V362.9" stroke="#E2231A" stroke-width="3" stroke-miterlimit="10"/>
<path d="M396.6 368.9V364.55L391.5 359.5L386.45 364.55V368.9L391.5 363.8L396.6 368.9Z" fill="#E2231A"/>
<path d="M264.5 276.5H398.5V258.9" stroke="#FFCC00" stroke-width="3" stroke-miterlimit="10"/>
<path d="M403.6 264.9V260.55L398.5 255.5L393.45 260.55V264.9L398.5 259.8L403.6 264.9Z" fill="#FFCC00"/>
<text fill="#00617B" xml:space="preserve" style="white-space: pre" font-family="Arial" font-size="32" letter-spacing="0em"><tspan x="47.8125" y="51.5938">Las medidas de seguridad se </tspan><tspan x="46.9062" y="88.5938">utiliza para proteger los datos</tspan></text>
</svg>
