<svg width="512" height="500" viewBox="0 0 512 500" fill="none" xmlns="http://www.w3.org/2000/svg">
<path d="M302.5 199.6L262.9 207.85L287 234.85L326.6 226.6L302.5 199.6Z" fill="white"/>
<path d="M329.3 226L366.05 218.35L341.95 191.35L305.2 199L329.3 226Z" fill="white"/>
<path d="M380.1 183.4L344.65 190.8L368.75 217.8L404.2 210.4L380.1 183.4Z" fill="white"/>
<path d="M431 240.45L406.05 212.5L370.6 219.85L395.6 247.85L431 240.45Z" fill="white"/>
<path d="M331.15 228.1L356.15 256.05L392.85 248.4L367.9 220.45L331.15 228.1Z" fill="white"/>
<path d="M353.45 256.6L328.45 228.65L288.85 236.9L313.85 264.9L353.45 256.6Z" fill="white"/>
<path d="M382.25 288.85L355.3 258.7L315.7 266.95L342.65 297.1L382.25 288.85Z" fill="white"/>
<path d="M358 258.15L384.95 288.3L421.65 280.65L394.75 250.5L358 258.15Z" fill="white"/>
<path d="M459.8 272.7L432.85 242.5L397.45 249.9L424.4 280.05L459.8 272.7Z" fill="white"/>
<path d="M460.3 275.05L425.4 282.3L413.8 317.6L448.7 310.3L460.3 275.05Z" fill="white"/>
<path d="M435.95 348.95L447.85 312.95L412.95 320.25L401.1 356.2L435.95 348.95Z" fill="white"/>
<path d="M411.1 318.15L422.7 282.9L385.2 290.7L373.6 325.95L411.1 318.15Z" fill="white"/>
<path d="M372.75 328.6L360.9 364.6L398.35 356.8L410.2 320.8L372.75 328.6Z" fill="white"/>
<path d="M422.9 388.75L435.1 351.6L400.2 358.85L388 396L422.9 388.75Z" fill="white"/>
<path d="M397.5 359.45L360 367.25L347.8 404.4L385.25 396.6L397.5 359.45Z" fill="white"/>
<path d="M345.05 404.95L357.3 367.8L317.95 376L305.7 413.15L345.05 404.95Z" fill="white"/>
<path d="M358.15 365.15L370 329.2L330.65 337.4L318.8 373.4L358.15 365.15Z" fill="white"/>
<path d="M343.15 299.45L331.5 334.75L370.9 326.55L382.5 291.25L343.15 299.45Z" fill="white"/>
<path d="M315.65 375.25L288.85 345.25L276.6 382.4L303.4 412.4L315.65 375.25Z" fill="#212529"/>
<path d="M301.55 306.65L289.7 342.65L316.5 372.6L328.35 336.65L301.55 306.65Z" fill="#6C757D"/>
<path d="M329.25 334L340.85 298.7L314.05 268.75L302.45 304L329.25 334Z" fill="#ADB5BD"/>
<path d="M312.2 266.65L286.7 238.1L275.1 273.4L300.6 301.95L312.2 266.65Z" fill="#ADB5BD"/>
<path d="M287.85 340.55L299.7 304.55L274.2 276L262.35 312L287.85 340.55Z" fill="#6C757D"/>
<path d="M249.25 351.8L274.75 380.35L287 343.2L261.5 314.65L249.25 351.8Z" fill="#212529"/>
<path d="M247.4 349.75L259.65 312.6L235.9 286L223.65 323.15L247.4 349.75Z" fill="#212529"/>
<path d="M272.35 273.95L248.6 247.35L236.75 283.35L260.5 309.95L272.35 273.95Z" fill="#6C757D"/>
<path d="M261.1 209.45L249.5 244.7L273.25 271.3L284.85 236.05L261.1 209.45Z" fill="#ADB5BD"/>
<path d="M381.4 181.3C381.133 180.967 380.75 180.833 380.25 180.9L260.35 205.9L221.15 323.05C221.05 323.517 221.133 323.917 221.4 324.25L303 415.55C303.333 415.917 303.717 416.05 304.15 415.95L424.05 390.95C424.483 390.85 424.783 390.583 424.95 390.15L463.25 273.8C463.417 273.367 463.333 272.983 463 272.65L381.4 181.3ZM344.65 190.8L380.1 183.4L404.2 210.4L368.75 217.8L344.65 190.8ZM406.05 212.5L431 240.45L395.6 247.85L370.6 219.85L406.05 212.5ZM425.4 282.3L460.3 275.05L448.7 310.3L413.8 317.6L425.4 282.3ZM432.85 242.5L459.8 272.7L424.4 280.05L397.45 249.9L432.85 242.5ZM328.45 228.65L353.45 256.6L313.85 264.9L288.85 236.9L328.45 228.65ZM356.15 256.05L331.15 228.1L367.9 220.45L392.85 248.4L356.15 256.05ZM355.3 258.7L382.25 288.85L342.65 297.1L315.7 266.95L355.3 258.7ZM384.95 288.3L358 258.15L394.75 250.5L421.65 280.65L384.95 288.3ZM366.05 218.35L329.3 226L305.2 199L341.95 191.35L366.05 218.35ZM340.85 298.7L329.25 334L302.45 304L314.05 268.75L340.85 298.7ZM331.5 334.75L343.15 299.45L382.5 291.25L370.9 326.55L331.5 334.75ZM370 329.2L358.15 365.15L318.8 373.4L330.65 337.4L370 329.2ZM360 367.25L397.5 359.45L385.25 396.6L347.8 404.4L360 367.25ZM360.9 364.6L372.75 328.6L410.2 320.8L398.35 356.8L360.9 364.6ZM435.1 351.6L422.9 388.75L388 396L400.2 358.85L435.1 351.6ZM447.85 312.95L435.95 348.95L401.1 356.2L412.95 320.25L447.85 312.95ZM422.7 282.9L411.1 318.15L373.6 325.95L385.2 290.7L422.7 282.9ZM249.5 244.7L261.1 209.45L284.85 236.05L273.25 271.3L249.5 244.7ZM286.7 238.1L312.2 266.65L300.6 301.95L275.1 273.4L286.7 238.1ZM262.9 207.85L302.5 199.6L326.6 226.6L287 234.85L262.9 207.85ZM248.6 247.35L272.35 273.95L260.5 309.95L236.75 283.35L248.6 247.35ZM299.7 304.55L287.85 340.55L262.35 312L274.2 276L299.7 304.55ZM289.7 342.65L301.55 306.65L328.35 336.65L316.5 372.6L289.7 342.65ZM274.75 380.35L249.25 351.8L261.5 314.65L287 343.2L274.75 380.35ZM288.85 345.25L315.65 375.25L303.4 412.4L276.6 382.4L288.85 345.25ZM259.65 312.6L247.4 349.75L223.65 323.15L235.9 286L259.65 312.6ZM357.3 367.8L345.05 404.95L305.7 413.15L317.95 376L357.3 367.8Z" fill="#CED4DA"/>
<text fill="black" xml:space="preserve" style="white-space: pre" font-family="Arial" font-size="26.35" letter-spacing="0em"><tspan x="54.1" y="189.235">Confidencialidad</tspan></text>
<text fill="black" xml:space="preserve" style="white-space: pre" font-family="Arial" font-size="26.35" letter-spacing="0em"><tspan x="50.6859" y="292.135">Integridad</tspan></text>
<text fill="black" xml:space="preserve" style="white-space: pre" font-family="Arial" font-size="26.35" letter-spacing="0em"><tspan x="42" y="399.135">Disponibilidad</tspan></text>
<path d="M267 234H145V208.4" stroke="#ADB5BD" stroke-width="3" stroke-miterlimit="10"/>
<path d="M150.05 214.4V210.05L145 205L139.9 210.05V214.4L145 209.3L150.05 214.4Z" fill="#ADB5BD"/>
<path d="M289.5 376.5V436.5H119.5V419.9" stroke="#212529" stroke-width="3" stroke-miterlimit="10"/>
<path d="M124.55 425.9V421.55L119.5 416.5L114.4 421.55V425.9L119.5 420.8L124.55 425.9Z" fill="#212529"/>
<path d="M254.5 284.5H171.4" stroke="#6C757D" stroke-width="3" stroke-miterlimit="10"/>
<path d="M177.4 279.4H173.05L168 284.5L173.05 289.55H177.4L172.3 284.5L177.4 279.4Z" fill="#6C757D"/>
<text fill="#00617B" xml:space="preserve" style="white-space: pre" font-family="Arial" font-size="32" letter-spacing="0em"><tspan x="41.5938" y="56.9438">Los principios fundamentales </tspan><tspan x="71.8594" y="93.9438">for protecting information</tspan></text>
</svg>
