<svg viewBox="0 0 400 300" xmlns="http://www.w3.org/2000/svg"><rect fill="#093f68" height="130.31" rx="4.64" width="197.36" x="101.32" y="71.65"/><path d="m294 203h-188a5.65 5.65 0 0 1 -5.64-5.65v-121.05a5.65 5.65 0 0 1 5.64-5.65h188a5.65 5.65 0 0 1 5.64 5.65v121a5.65 5.65 0 0 1 -5.64 5.7zm-188-130.35a3.65 3.65 0 0 0 -3.64 3.65v121a3.65 3.65 0 0 0 3.64 3.7h188a3.65 3.65 0 0 0 3.64-3.65v-121.05a3.65 3.65 0 0 0 -3.64-3.65z" fill="#093f68"/><rect fill="#68e1fd" height="107.37" rx="1.96" width="183.44" x="108.28" y="77.27"/><g fill="#093f68"><path d="m289.76 185.64h-179.52a3 3 0 0 1 -3-3v-103.42a3 3 0 0 1 3-3h179.52a3 3 0 0 1 3 3v103.46a3 3 0 0 1 -3 2.96zm-179.52-107.37a1 1 0 0 0 -1 1v103.41a1 1 0 0 0 1 1h179.52a1 1 0 0 0 1-1v-103.46a1 1 0 0 0 -1-1z"/><path d="m181.56 201.97h36.87v17.73h-36.87z"/><path d="m218.44 220.7h-36.88a1 1 0 0 1 -1-1v-17.7a1 1 0 0 1 1-1h36.88a1 1 0 0 1 1 1v17.7a1 1 0 0 1 -1 1zm-35.88-2h34.88v-15.7h-34.88z"/><rect height="8.64" rx="3.9" width="99.75" x="150.13" y="219.7"/><path d="m246 229.35h-92a4.91 4.91 0 0 1 -4.9-4.91v-.84a4.91 4.91 0 0 1 4.9-4.9h92a4.91 4.91 0 0 1 4.9 4.9v.84a4.91 4.91 0 0 1 -4.9 4.91zm-92-8.65a2.9 2.9 0 0 0 -2.9 2.9v.84a2.91 2.91 0 0 0 2.9 2.91h92a2.91 2.91 0 0 0 2.9-2.91v-.84a2.9 2.9 0 0 0 -2.9-2.9z"/></g><circle cx="280.88" cy="193.31" fill="#f56132" r="3.39"/><path d="m280.88 197.7a4.39 4.39 0 1 1 4.39-4.39 4.4 4.4 0 0 1 -4.39 4.39zm0-6.78a2.39 2.39 0 1 0 2.39 2.39 2.39 2.39 0 0 0 -2.39-2.39z" fill="#093f68"/><path d="m181.95 111.25h86.55v58.22h-86.55z" fill="#fff"/><path d="m268.5 170.47h-86.5a1 1 0 0 1 -1-1v-58.22a1 1 0 0 1 1-1h86.5a1 1 0 0 1 1 1v58.22a1 1 0 0 1 -1 1zm-85.55-2h84.55v-56.22h-84.5z" fill="#093f68"/><path d="m181.95 111.25h86.55v6.9h-86.55z" fill="#70cc40"/><path d="m268.5 119.15h-86.5a1 1 0 0 1 -1-1v-6.9a1 1 0 0 1 1-1h86.5a1 1 0 0 1 1 1v6.9a1 1 0 0 1 -1 1zm-85.55-2h84.55v-4.9h-84.5z" fill="#093f68"/><path d="m131.5 92.7h86.55v58.22h-86.55z" fill="#fff"/><path d="m218.05 151.92h-86.55a1 1 0 0 1 -1-1v-58.22a1 1 0 0 1 1-1h86.55a1 1 0 0 1 1 1v58.22a1 1 0 0 1 -1 1zm-85.55-2h84.55v-56.22h-84.55z" fill="#093f68"/><path d="m131.5 92.7h86.55v6.9h-86.55z" fill="#ffbc0e"/><path d="m218.05 100.59h-86.55a1 1 0 0 1 -1-1v-6.89a1 1 0 0 1 1-1h86.55a1 1 0 0 1 1 1v6.89a1 1 0 0 1 -1 1zm-85.55-2h84.55v-4.89h-84.55z" fill="#093f68"/></svg>