<svg enable-background="new 0 0 1600 1200" fill="none" height="1200" viewBox="0 0 1600 1200" width="1600" xmlns="http://www.w3.org/2000/svg"><path d="m1342.1 1043.4 34.9-351c.7-7.5-.1-15.1-2.4-22.3l-124-385c-6.5-20.2-24.1-34.9-45.2-37.7l-685.2-90.4c-19.2-2.5-38.2 5.2-50.2 20.3l-235.4 296.2c-8.4 10.6-12.7 24-11.8 37.5l32 531.6z" fill="#f4f4f4"/><path d="m360.001 870.8h-83.9c-1.5 0-2.6-1.2-2.6-2.6 0-1.5 1.2-2.6 2.6-2.6h83.9c1.5 0 2.6 1.2 2.6 2.6s-1.2 2.6-2.6 2.6z" fill="#61656d"/><path d="m356.5 870.8 13.9 171.2h-2.8l-20.9-171.2z" fill="#61656d"/><path d="m279.101 870.8-14 171.2h2.8l20.9-171.2z" fill="#61656d"/><path d="m279.1 870.8-.4 3.3h4.8l-16.8 167.9h1.2l20.9-171.2z" fill="#3f4249"/><path d="m360.3 936.4h-2.5l-11.1-65.6h9.8l13.9 171.2h-1.4z" fill="#3f4249"/><path d="m311.801 870.8 2.2 171.2h2.8l4.8-171.2z" fill="#3f4249"/><path d="m331.301 823.3s6.1-48.7 20.1-75.3" stroke="#868a91" stroke-miterlimit="10" stroke-width=".5543"/><path d="m321.001 739.6s9.5 39.2 8 66.3" stroke="#868a91" stroke-miterlimit="10" stroke-width=".5543"/><path d="m350.101 750.4s.1-26.3 23.1-27.8c0-.1 1.9 23-23.1 27.8z" fill="#4d61fc"/><path d="m295.001 744.7s-6.2-25-33.4-17.9c0 0 5.2 18.3 33.4 17.9z" fill="#4d61fc"/><path d="m324.501 755s8.1-21.3-10.7-32.4c0-.1-8.3 20.9 10.7 32.4z" fill="#4d61fc"/><path d="m295.001 744.7s25 28.6 25 78.6" stroke="#868a91" stroke-miterlimit="10" stroke-width=".5543"/><path d="m339 740.8c-5.5 22-7.9 26.8-11.1 82.5" stroke="#868a91" stroke-miterlimit="10" stroke-width=".5543"/><path d="m274.301 710.3c11 5 45.7 41.4 39.9 112.1" stroke="#868a91" stroke-miterlimit="10" stroke-width=".5543"/><path d="m310 822.4s7.2-49-23.1-65.3" stroke="#868a91" stroke-miterlimit="10" stroke-width=".5543"/><path d="m332.301 815.9s2.6-7.8 11-14.3" stroke="#868a91" stroke-miterlimit="10" stroke-width=".5543"/><path d="m335.001 800.7s17.1-15.1 25.7-17.6" stroke="#868a91" stroke-miterlimit="10" stroke-width=".5543"/><path d="m300.501 769.5s-6.7-25.7-33.5-19.7c0 0 4.6 21.9 33.5 19.7z" fill="#4d61fc"/><path d="m300.501 769.5s-6.7-25.7-33.5-19.7c0 0 4.6 21.9 33.5 19.7z" fill="#fff" opacity=".4"/><path d="m314.201 795.9s-4.6-18.3-29.1-12.2c.1-.1 8.1 18.2 29.1 12.2z" fill="#4d61fc"/><path d="m330.9 784s2.3-28.7 32.2-32.2c-.1 0 1.4 28.1-32.2 32.2z" fill="#4d61fc"/><path d="m324.001 696.6s-1.2 106.1-1.4 126.7" stroke="#868a91" stroke-miterlimit="10" stroke-width=".5543"/><path d="m328.4 776.4s-25.5 1.3-25.5-26.9c0 0 24.7.3 25.5 26.9z" fill="#4d61fc"/><path d="m328.4 776.4s-25.5 1.3-25.5-26.9c0 0 24.7.3 25.5 26.9z" fill="#fff" opacity=".4"/><path d="m352.601 787.3s6.9-19.4 28.9-14.5c-.1 0-3.7 16.4-28.9 14.5z" fill="#4d61fc"/><path d="m352.601 787.3s6.9-19.4 28.9-14.5c-.1 0-3.7 16.4-28.9 14.5z" fill="#fff" opacity=".4"/><path d="m342.4 822.8h-45.2v5.7h45.2z" fill="#868a91"/><path d="m336.7 865.5h-33.8l-2.5-37.1h38.8z" fill="#868a91"/><path d="m336.7 865.5h-33.8l-2.5-37.1h38.8z" fill="#868a91"/><path d="m342.4 822.8h-7.3v5.6h-6.8-27.9l.1 1.6h27.8l.1 35.5h8.3l2.5-37.1h3.2z" fill="#61656d"/><path d="m323.7 718.5s-12.5-18.9 3.8-37c-.1 0 10.7 18.4-3.8 37z" fill="#4d61fc"/><path d="m323.7 718.5s-12.5-18.9 3.8-37c-.1 0 10.7 18.4-3.8 37z" fill="#fff" opacity=".4"/><path d="m335 756.5s-13.7-29.3 10.8-47.3c0 0 16.9 26.5-10.8 47.3z" fill="#4d61fc"/><path d="m335 756.5s-13.7-29.3 10.8-47.3c0 0 16.9 26.5-10.8 47.3z" fill="#fff" opacity=".4"/><path d="m338.301 806.6s3.3-12.8 20.8-10.1c0 0-2.9 13-20.8 10.1z" fill="#4d61fc"/><path d="m314.5 812.4s-3.8-24.7 18.8-27.6c0 0 5.4 21.5-18.8 27.6z" fill="#4d61fc"/><path d="m314.5 812.4s-3.8-24.7 18.8-27.6c0 0 5.4 21.5-18.8 27.6z" fill="#fff" opacity=".4"/><path d="m268.101 706.5s13.6-1.4 16.2 11.7c.1-.1-12.2 1.4-16.2-11.7z" fill="#4d61fc"/><path d="m268.101 706.5s13.6-1.4 16.2 11.7c.1-.1-12.2 1.4-16.2-11.7z" fill="#fff" opacity=".3"/><path d="m301.301 705.1s-16.9 17.6-.4 36.8c0 0 16.7-18.8.4-36.8z" fill="#4d61fc"/><path d="m301.301 705.1s-16.9 17.6-.4 36.8c0 0 16.7-18.8.4-36.8z" fill="#fff" opacity=".4"/><path d="m1269 768.4h68.9c1.9 0 3.4-1.5 3.4-3.4s-1.5-3.4-3.4-3.4h-68.9z" fill="#b2b6bb"/><path d="m1329 765h-69.5v214.1h69.5z" fill="#b2b6bb"/><path d="m1261.6 765h-299.9v214.1h299.9z" fill="#dadddf"/><path d="m1250.8 962.8h-279.199v-168l279.199.2zm-277.599-1.5h276.099v-164.7h-276.099z" fill="#b2b6bb"/><path d="m953.8 768.4h315.3c1.9 0 3.4-1.5 3.4-3.4s-1.5-3.4-3.4-3.4h-315.3c-1.9 0-3.4 1.5-3.4 3.4s1.5 3.4 3.4 3.4z" fill="#dadddf"/><path d="m971.656 879.292h279.204v-1.6h-279.204z" fill="#b2b6bb"/><path d="m1108.8 825.4c2.93 0 5.3-2.373 5.3-5.3s-2.37-5.3-5.3-5.3-5.3 2.373-5.3 5.3 2.37 5.3 5.3 5.3z" fill="#b2b6bb"/><path d="m1110.8 820.1c0-2.3-1.5-4.3-3.6-5 .5-.2 1.1-.3 1.7-.3 2.9 0 5.3 2.4 5.3 5.3s-2.4 5.3-5.3 5.3c-.6 0-1.2-.1-1.7-.3 2-.7 3.6-2.7 3.6-5z" fill="#000" opacity=".15"/><path d="m1108.8 908c2.93 0 5.3-2.373 5.3-5.3s-2.37-5.3-5.3-5.3-5.3 2.373-5.3 5.3 2.37 5.3 5.3 5.3z" fill="#b2b6bb"/><path d="m1110.8 902.7c0-2.3-1.5-4.3-3.6-5 .5-.2 1.1-.3 1.7-.3 2.9 0 5.3 2.4 5.3 5.3s-2.4 5.3-5.3 5.3c-.6 0-1.2-.1-1.7-.3 2-.6 3.6-2.6 3.6-5z" fill="#000" opacity=".15"/><path d="m1272.5 775.6-10.9-7.2h-299.9v3.3z" fill="#b2b6bb"/><path d="m1315.3 979.2 5.4 59.2c.4 2.2-1.2 4.2-3.4 4.2-1.5 0-2.8-.9-3.3-2.3l-15.5-61.1z" fill="#dadddf"/><path d="m1313.3 1013.6-6.5-1.6-8.4-32.9h16.9l5.4 59.2c.3 1.7-.6 3.3-2 3.9z" fill="#b2b6bb"/><path d="m1254.8 979.2 5.4 59.2c.4 2.2-1.2 4.2-3.4 4.2-1.5 0-2.8-.9-3.3-2.3l-15.5-61.1z" fill="#dadddf"/><path d="m1249.2 985.7-9.6-1.8-1.6-4.7h16.9l5.4 59.2c.3 1.7-.6 3.3-2 3.9z" fill="#b2b6bb"/><path d="m1034.3 979.2-5.4 59.2c-.4 2.2 1.2 4.2 3.4 4.2 1.5 0 2.8-.9 3.3-2.3l15.5-61.1z" fill="#dadddf"/><path d="m1037.2 1010.7-5.7-1.4 2.7-30.1h16.9l-15.5 61.1c-.5 1.4-1.8 2.3-3.3 2.3-.1 0-.1 0-.2 0z" fill="#b2b6bb"/><path d="m972.1 979.2-5.4 59.2c-.4 2.2 1.2 4.2 3.4 4.2 1.5 0 2.8-.9 3.3-2.3l15.5-61.1z" fill="#dadddf"/><path d="m978.701 984.3-7.401-1.4.8-3.8h16.9l-15.5 61.1c-.5 1.4-1.799 2.3-3.299 2.3-.1 0-.101 0-.201 0z" fill="#b2b6bb"/><path d="m623.855 226.272v117.1h149.1v-117.1z" fill="#fff"/><path d="m638.855 241.872v85.9h119.1v-85.9z" fill="#ddd"/><path d="m776.3 226.3h-3.4v117h3.4z" fill="#dadddf"/><path d="m700.6 289.2c10.272 0 18.6-8.327 18.6-18.6 0-10.272-8.328-18.6-18.6-18.6-10.273 0-18.6 8.328-18.6 18.6 0 10.273 8.327 18.6 18.6 18.6z" fill="#4d61fc"/><path d="m651.7 320.2 30.3-19.4-30-19.3z" fill="#000" opacity=".2"/><path d="m704.688 274.893v40.2h40.2v-40.2z" fill="#000" opacity=".2"/><path d="m996.701 1041.1h-424.9c-8.1 0-14.7-6.6-14.7-14.7v-601.7c0-8.1 6.6-14.7 14.7-14.7h424.9c8.099 0 14.699 6.6 14.699 14.7v601.6c0 8.2-6.6 14.8-14.699 14.8z" fill="#4d61fc"/><path d="m996.701 1041.1h-424.9c-8.1 0-14.7-6.6-14.7-14.7v-601.7c0-8.1 6.6-14.7 14.7-14.7h424.9c8.099 0 14.699 6.6 14.699 14.7v601.6c0 8.2-6.6 14.8-14.699 14.8z" fill="#fff" opacity=".5"/><path d="m983.9 1041.1h-424.9c-8.1 0-14.7-6.6-14.7-14.7v-601.7c0-8.1 6.6-14.7 14.7-14.7h424.9c8.1 0 14.7 6.6 14.7 14.7v601.6c0 8.2-6.6 14.8-14.7 14.8z" fill="#4d61fc"/><path d="m983.9 1041.1h-424.9c-8.1 0-14.7-6.6-14.7-14.7v-601.7c0-8.1 6.6-14.7 14.7-14.7h424.9c8.1 0 14.7 6.6 14.7 14.7v601.6c0 8.2-6.6 14.8-14.7 14.8z" fill="#fff" opacity=".7"/><path d="m918.5 518h-136.4c-4.3 0-7.8-3.5-7.8-7.8s3.5-7.8 7.8-7.8h136.4c4.3 0 7.8 3.5 7.8 7.8-.1 4.3-3.5 7.8-7.8 7.8z" fill="#fff"/><path d="m922.1 555h-143.7c-2.3 0-4.1-1.8-4.1-4.1s1.8-4.1 4.1-4.1h143.7c2.3 0 4.1 1.8 4.1 4.1s-1.8 4.1-4.1 4.1z" fill="#fff"/><path d="m863.3 588.8h-84.9c-2.3 0-4.1-1.8-4.1-4.1s1.8-4.1 4.1-4.1h84.9c2.3 0 4.1 1.8 4.1 4.1s-1.9 4.1-4.1 4.1z" fill="#fff"/><path d="m918.5 723h-136.4c-4.3 0-7.8-3.5-7.8-7.8s3.5-7.8 7.8-7.8h136.4c4.3 0 7.8 3.5 7.8 7.8-.1 4.3-3.5 7.8-7.8 7.8z" fill="#fff"/><path d="m922.1 760.1h-143.7c-2.3 0-4.1-1.8-4.1-4.1s1.8-4.1 4.1-4.1h143.7c2.3 0 4.1 1.8 4.1 4.1 0 2.2-1.8 4.1-4.1 4.1z" fill="#fff"/><path d="m863.3 793.9h-84.9c-2.3 0-4.1-1.8-4.1-4.1s1.8-4.1 4.1-4.1h84.9c2.3 0 4.1 1.8 4.1 4.1 0 2.2-1.9 4.1-4.1 4.1z" fill="#fff"/><path d="m681.4 695.9h-10.8v1.1c-25.1 5-44 27.1-44 53.7 0 26.5 18.9 48.7 44 53.7v1.1h10.8c30.2 0 54.7-24.5 54.7-54.7.1-30.4-24.4-54.9-54.7-54.9z" fill="#4d61fc"/><path d="m670.7 805.4c30.21 0 54.7-24.49 54.7-54.7s-24.49-54.7-54.7-54.7-54.7 24.49-54.7 54.7 24.49 54.7 54.7 54.7z" fill="#4d61fc"/><path d="m670.7 805.4c30.21 0 54.7-24.49 54.7-54.7s-24.49-54.7-54.7-54.7-54.7 24.49-54.7 54.7 24.49 54.7 54.7 54.7z" fill="#fff" opacity=".4"/><path d="m660.5 773.6-18.5-18.5c-1-1-1-2.6 0-3.6l4.8-4.8c1-1 2.6-1 3.6 0l11.9 11.9 28.6-28.6c1-1 2.6-1 3.6 0l4.8 4.8c1 1 1 2.6 0 3.6l-35.2 35.2c-1 .9-2.6.9-3.6 0z" fill="#fff"/><path d="m871.2 969.8h-183.5c-3.9 0-7-3.1-7-7v-47.9c0-3.9 3.1-7 7-7h183.6c3.9 0 7 3.1 7 7v47.9c-.1 3.9-3.2 7-7.1 7z" fill="#4d61fc"/><path d="m871.2 969.8h-183.5c-3.9 0-7-3.1-7-7v-47.9c0-3.9 3.1-7 7-7h183.6c3.9 0 7 3.1 7 7v47.9c-.1 3.9-3.2 7-7.1 7z" fill="#fff" opacity=".5"/><path d="m864.3 969.8h-183.6c-3.9 0-7-3.1-7-7v-47.9c0-3.9 3.1-7 7-7h183.6c3.9 0 7 3.1 7 7v47.9c0 3.9-3.2 7-7 7z" fill="#fff"/><path d="m943.3 458.7-17.5-17.5-17.5 17.5c-1.3 1.3-3.5.4-3.5-1.5v-46.8h42.1v46.8c0 1.9-2.3 2.8-3.6 1.5z" fill="#3f4249"/><path d="m1246.5 907.2 33.7 38.2-24 18.6-28.2-25.8z" fill="#fc9d9d"/><path d="m1275.7 939.1 21.5 16.5c2.4 1.8 3.1 5.1 1.7 7.7l-41.3 76.3c-.9 1.7-2.9 2.4-4.7 1.7-3.8-1.4-5.8-5.5-4.7-9.4l.5-1.8c2.4-8.3 3.6-16.9 3.7-25.5l.6-40.3c0-2.5 1.8-4.6 4.2-5.2 7.9-1.8 13.8-8.4 14.7-16.4l.2-2c.2-1.8 2.2-2.7 3.6-1.6z" fill="#3f4249"/><path d="m1265.3 928-106.1-126.2 1.3-112.2 1.2-64.3-61.5-.1 6.7 188.9c.1 8.1 3.4 15.8 9.3 21.3l126.1 115.6z" fill="#4d61fc"/><path d="m1265.3 928-106.1-126.2 2.2-176.4-61.2-.1 6.7 188.9c.1 8.1 3.4 15.8 9.3 21.3l126.1 115.6z" fill="#fff" opacity=".2"/><path d="m1226 984.7-31 .6 1.6 23.9 28.6 2.6z" fill="#fc9d9d"/><path d="m1210.9 997.3c-8.3 0-15 6.6-15.3 14.8l-.1 3.8c-.1 1.5-.3 3-.7 4.5l-4.3 15.7c-.7 2.7 1.3 5.4 4.1 5.4h35.2c3 0 5.1-3 3.9-5.8l-6.1-15.1c-.8-2.1-1.3-4.3-1.4-6.6l-.1-1.8c-.1-8.3-6.9-14.9-15.2-14.9z" fill="#3f4249"/><path d="m1224.7 625.4 1.8 370.3h-31.2l-28.1-307.6c-.1-1.8-1.6-3.1-3.3-3.1-1.8 0-3.2 1.4-3.3 3.2l-.8 28.4-7.5-91.2z" fill="#4d61fc"/><path d="m1224.7 625.4 1.8 370.3h-31.2l-28.1-307.6c-.1-1.8-1.6-3.1-3.3-3.1-1.8 0-3.2 1.4-3.3 3.2l-.8 28.4-7.5-91.2z" fill="#fff" opacity=".2"/><path d="m1102.2 636.7h122.6l-.1-11.3h-124.5z" fill="#000" opacity=".4"/><path d="m1189.73 637.609h4v-12.2h-4z" fill="#3f4249"/><path d="m1135.03 637.609h4v-12.2h-4z" fill="#3f4249"/><path d="m1217.4 1012.9c.2 0 .4-.1.6-.3.2-.3.1-.8-.2-1-.1 0-6.9-4.5-13.7 0-.3.2-.4.6-.2 1 .2.3.6.4 1 .2 6-4 12.1 0 12.1 0 .2.1.3.1.4.1z" fill="#3f4249"/><path d="m1217.4 1016.9c.2 0 .4-.1.6-.3.2-.3.1-.8-.2-1-.1 0-6.9-4.5-13.7 0-.3.2-.4.6-.2 1 .2.3.6.4 1 .2 6-4 12.1 0 12.1 0 .2.1.3.1.4.1z" fill="#3f4249"/><path d="m1217.4 1021c.2 0 .4-.1.6-.3.2-.3.1-.8-.2-1-.1 0-6.9-4.5-13.7 0-.3.2-.4.6-.2 1 .2.3.6.4 1 .2 6-4 12.1 0 12.1 0 .2 0 .3.1.4.1z" fill="#3f4249"/><path d="m1260.2 974.4c.3 0 .6-.3.7-.6.1-.4-.2-.7-.6-.8l-7.3-1c-.4-.1-.7.2-.8.6s.2.7.6.8l7.3 1z" fill="#3f4249"/><path d="m1260 979.4c.3 0 .6-.3.7-.6.1-.4-.2-.7-.6-.8l-7.3-1c-.4-.1-.7.2-.8.6s.2.7.6.8l7.3 1z" fill="#3f4249"/><path d="m1260 984.8c.3 0 .6-.3.7-.6.1-.4-.2-.7-.6-.8l-7.3-1c-.4-.1-.7.2-.8.6s.2.7.6.8l7.3 1z" fill="#3f4249"/><path d="m1298.9 963.3-41.3 76.3c-.9 1.7-2.9 2.4-4.7 1.7-.4-.1-.7-.3-1-.5l45.3-85.2c2.4 1.8 3.1 5 1.7 7.7z" fill="#000" opacity=".5"/><path d="m1229.9 1041.5h-35.2c-2.7 0-4.7-2.5-4.2-5.2h43.5c.6 2.6-1.4 5.2-4.1 5.2z" fill="#000" opacity=".5"/><path d="m1185.1 898.8 1.5 1.7-6.8-74.2-1.5-1.7z" fill="#000" opacity=".04"/><path d="m1125.1 625.6c9.1-119.6 19.1-192.9 19.1-192.9l.9-.3s17.3 23.1 39.7 5.1l3-3.7 2.6.7h-.1s1.1 100.4 11.2 191z" fill="#fff"/><path d="m1271.3 523.5-40.9 9.6-3.7-12.5-1.6 160.6h-23.9c-4.5 0-8.2-3.4-8.6-7.9-10.6-126.2-2.3-238.7-2.3-238.7l17.4 4.5 32 8.2c9.6 2.4 17.1 10.1 19.2 19.9z" fill="#21252b"/><path d="m1144 389.7.3 46.6c0 1 .3 1.9.9 2.8l.4.6c11.5 11.5 29.6 10.6 43-.5 1.4-1.1 2-2.9 1.8-4.6l-7.2-48.1z" fill="#fc9d9d"/><path d="m1187.3 369.9s8 52.5-21 54.6c-28.3 2.1-29.1-51-29.1-51l-.8-15.2 36.4-6.4 9.2 4.7z" fill="#fc9d9d"/><path d="m1188 420.1-2.1-14.4c-2.6 9.3-8.1 17-17.6 18.6h.1c-.7.1-1.4.2-2.1.3-7.6.6-13.8-2.9-18.6-10.4-.2-.3-.6-.4-.9-.2s-.4.6-.2.9c5 7.9 11.7 11.6 19.8 11 1.7-.1 3.4-.4 5-.9 5.2.6 11.1-.7 16.6-4.9z" fill="#000" opacity=".15"/><path d="m1180.5 358.1s9.2-6.1 13.6 4.3c3.6 8.8-2.5 18.4-2.5 18.4l-5.3-.5c-2.2-.1-3.8-1.1-4-3.3z" fill="#21252b"/><path d="m1187.1 351.8c.8 10-7.8 12.6-11.3 12.9l-28.6 2.4c-2.3.2-4.1 2.2-3.9 4.5l.5 9.1c.1 1.2-.8 2.3-2 2.5l-1.8.2-2 2.5c-11.2-2.7-15.9-34.5 4.7-41 2.2-.7 4.1-2.3 5.1-4.3 3-6.2 15.3-7.8 21.5-.9 1.3 1.5 2.9 2.2 4.9 2.1 7.6-.2 12.4 4.5 12.9 10z" fill="#21252b"/><path d="m1140 386.6c-.4-3.7-4.8-5.6-7.6-3.2l-.1.1c-4.9 4.2-1.8 17.7 9.1 16.4z" fill="#fc9d9d"/><path d="m1194 379.5s-.1 0-.1-.1c-3.2-1.9-7.2.6-7 4.3l.6 12.8c10.8-.4 11.9-13.5 6.5-17z" fill="#fc9d9d"/><path d="m1141.4 388.3c.1.6-.5 1.2-1.2 1.3s-1.4-.4-1.5-1l-1.2-8.6 3.5.1z" fill="#21252b"/><path d="m1189.1 384.7c.1.6-.5 1.2-1.2 1.3s-1.4-.4-1.5-1l-1.2-8.6 3.5.1z" fill="#21252b"/><path d="m1175.9 366c-.8.1-1.4 0-1.5 0-.3 0-.6-.3-.6-.6s.3-.6.6-.6c.1 0 5.8.3 8.2-3.5.2-.3.5-.4.8-.2s.4.5.2.8c-1.8 3.2-5.6 3.9-7.7 4.1z" fill="#fc9d9d"/><path d="m1154.5 394c1.38 0 2.5-1.119 2.5-2.5s-1.12-2.5-2.5-2.5-2.5 1.119-2.5 2.5 1.12 2.5 2.5 2.5z" fill="#21252b"/><path d="m1153.3 391.8c.28 0 .5-.224.5-.5s-.22-.5-.5-.5-.5.224-.5.5.22.5.5.5z" fill="#fff"/><path d="m1173.8 392.6c1.38 0 2.5-1.119 2.5-2.5s-1.12-2.5-2.5-2.5-2.5 1.119-2.5 2.5 1.12 2.5 2.5 2.5z" fill="#21252b"/><path d="m1172.6 390.3c.28 0 .5-.224.5-.5s-.22-.5-.5-.5-.5.224-.5.5.22.5.5.5z" fill="#fff"/><path d="m1165.4 403.4 2-.2c.4 0 .7-.4.7-.8s-.4-.7-.8-.7l-2 .2c-.8.1-1.6-.6-1.6-1.4-.1-.9.6-1.6 1.4-1.6.4 0 .7-.4.7-.8s-.4-.7-.8-.7c-1.6.1-2.9 1.5-2.8 3.2s1.6 3 3.2 2.8z" fill="#000" opacity=".09"/><path d="m1180.8 383.4-10.9.6-1.5.1-9.6.5h-.1l-12.3.7c-2 .1-3.5 1.8-3.4 3.8l.2 2.8c.3 5.4 5 9.6 10.4 9.3s9.6-5 9.3-10.4l-.2-2.8c0-.8-.4-1.6-.9-2.1l3.8-.2c-.4.6-.7 1.4-.6 2.2l.2 2.8c.3 5.4 5 9.6 10.4 9.3s9.6-5 9.3-10.4l-.2-2.8c-.1-2-1.9-3.6-3.9-3.4zm-19.5 4.7.2 2.8c.3 4.6-3.3 8.6-7.9 8.8-4.6.3-8.6-3.3-8.8-7.9l-.2-2.8c-.1-1.2.9-2.2 2.1-2.3l12.3-.7h.1c1.1 0 2.1.9 2.2 2.1zm22.1 1.5c.3 4.6-3.3 8.6-7.9 8.8-4.6.3-8.6-3.3-8.8-7.9l-.2-2.8c-.1-1.2.9-2.2 2.1-2.3l1.5-.1 10.9-.6c1.2-.1 2.2.9 2.3 2.1z" fill="#21252b"/><path d="m1159.2 407.4 12.3-.9c.3 0 .6.3.5.6-1.7 6.3-10.4 7-13.1 1.1v-.1c-.2-.3 0-.7.3-.7z" fill="#fff"/><path d="m1137.3 393.5c-.4 0-.7-.2-.8-.6l-.2-1.5c-.2-1.6-.6-2.8-1.4-3.4-.6-.5-1.2-.4-1.2-.4-.4.1-.8-.2-.8-.6-.1-.4.2-.8.6-.8.1 0 1.2-.2 2.3.6s1.7 2.3 2 4.4l.2 1.5c0 .4-.3.8-.7.8z" fill="#000" opacity=".09"/><path d="m1190.6 389.6c.4 0 .7-.3.7-.7v-1.6c-.1-1.6.2-2.9.9-3.5.5-.5 1.1-.6 1.1-.5.4 0 .7-.3.7-.7s-.3-.7-.7-.7c-.1 0-1.2 0-2.2 1s-1.4 2.5-1.3 4.6v1.5c0 .3.3.6.8.6z" fill="#000" opacity=".09"/><path d="m1247.9 468 12.6 58.1 10.9-2.6-11.3-51.7c-2.2-14-8.9-20.6-18.7-24.2l-12.4-3.2c11.4 5.1 16.5 13.2 18.9 23.6z" fill="#000" opacity=".09"/><path d="m1226.7 520.6-1.6 160.6h-12.6l1.7-190.7c.1-1.6 2.3-1.9 2.8-.4z" fill="#000" opacity=".3"/><path d="m1189.6 430 7.1 6.1 9.5 34.7-16.6-7.9.7-27.9z" fill="#21252b"/><path d="m1198 436.4-1.4-.4 9.6 34.8-16.6-7.9-.2 7.3 18.2 1.9z" fill="#000" opacity=".3"/><path d="m1152 625.6h-13.6l5.8-188.9s13 94.6 7.8 188.9z" fill="#000" opacity=".15"/><path d="m1151.7 625.4h-43.9l1.1 55.7h29.7c5.4 0 9.8-4.1 10.3-9.4 1.2-14.4 2.1-30 2.8-46.3z" fill="#000" opacity=".15"/><path d="m953.1 588.7 99.9-10.8c9.1-1 17.1-6.6 21.2-14.8l20.4-41-23.6-52.2-33.9 74.4-86.9 24.1z" fill="#fc9d9d"/><path d="m1083.1 524-20.4 41c-3.2 6.4-8.8 11.2-15.4 13.5l5.7-.6c9.1-1 17.1-6.6 21.2-14.8l20.4-41z" fill="#000" opacity=".15"/><path d="m1131.2 681.1h-29.7l-3.5-173.4-13.9 18.9-15.3-54.5c2.5-9 4.4-13.5 9.4-18.1 2.9-2.7 7.2-5.1 11.4-6.4l54.6-14.8s5.1 146.7-2.7 238.9c-.4 5.3-4.9 9.4-10.3 9.4z" fill="#21252b"/><path d="m1048.9 517.1 36.9 22.9 17.2-32.9-26.7-45.7-4.7 2.4z" fill="#21252b"/><path d="m996.3 373.6-38.9 61.2 64 7.9z" fill="#b2b6bb"/><path d="m917.9 933.9-21.3-2.7 60.8-496.4 21.3 2.6z" fill="#4d61fc"/><path d="m960.5 939.1-21.3-2.6 60.7-496.4 21.5 2.6z" fill="#4d61fc"/><path d="m939.2 936.5-21.3-2.6 60.8-496.5 21.2 2.7z" fill="#4d61fc"/><path d="m939.2 936.5-21.3-2.6 60.8-496.5 21.2 2.7z" fill="#000" opacity=".3"/><path d="m986 389.8 10.3-16.2 6.6 18.3z" fill="#21252b"/><path d="m936.1 557.3c2.6 0 4.801 2.1 4.801 4.8v6.5l15.8 1.6c1.2.1 2.2 1.2 2.2 2.4 0 1.3-1 2.3-2.2 2.4l-15.201 1c-.2 0-.4.2-.4.5 0 .2.2.4.4.5l15 1c1.4.1 2.401 1.2 2.401 2.6s-1.1 2.6-2.5 2.6l-15.101.5 14.7-.5c1.6-.1 2.901 1.2 2.901 2.9 0 1.5-1.101 2.7-2.601 2.8l-15 1.4 11.2-1c1.4-.1 2.6 1 2.6 2.4 0 1.2-.8 2.1-2 2.4l-9.5 1.9c-2.5.5-4.999-.4-6.699-2.3-6.6-7.6-7.901-18.5-3.101-27.4l1.7-8.4c0-.4.3-.6.6-.6z" fill="#fc9d9d"/><path d="m954.926 582.343-13.891.462.046 1.399 13.892-.462z" fill="#000" opacity=".0225"/><path d="m953.27 588.47-11.162.929.117 1.396 11.161-.93z" fill="#000" opacity=".0225"/><path d="m940.9 568.5v-6.5l-3.8 4c-.8.8-.3 2.101.9 2.201z" fill="#000" opacity=".2"/><path d="m1144.2 428.9-6.3 5.6-9.5 34.8 16.6-7.9z" fill="#21252b"/><path d="m1136.6 434.9 1.4-.4-9.6 34.8 16.6-7.9.2 7.3-18.2 1.9z" fill="#000" opacity=".3"/><path d="m1279.6 561.3-8.2-37.9-40.9 9.6 8.2 24-68.4 15.2-3.8.8c-1.3.3-2.4.4-3.3-.5l-1.5-1.5c-1.4-1.1-3-1.9-4.6-2.4-4-1.2-7.4-3.9-9.5-7.6l-3.3-5.8c-.2-.3-.5-.4-.8-.2l-.5.2c-2.4.9-3.6 3.5-2.9 6l2.5 8c.3.9-.2 1.8-1 2.1l-16.1 6.6c-3.4 1.3-2.2 5.9.9 5.2 1.7-.4 2-.5 2-.5l-3.2 1.6c-3.6 1.7-1.9 6.6 1.2 5.9 3-.6 7.1-1.8 7.1-1.8l-4 1.6c-2.9 1.4-1.7 6.4 2.2 5.5 2.3-.6 6-1.7 6-1.7l-2.4 1.2c-3.1 1-2 5.8.9 5.2 2.5-.5 26.2-6.3 38.4-8.5l90.6-9.8c9.8-1.2 16.5-10.7 14.4-20.5z" fill="#fc9d9d"/><path d="m1265 581.8-90.6 9.8c-12.2 2.2-35.9 8-38.4 8.5-1.6.3-2.7-1.1-2.8-2.5 0 0 .7 1.2 2.5.6 1-.3 15.5-5.6 24.7-9.1 5-1.9 10.1-3.2 15.3-4.1 19.8-3.3 71.2-12 85-15.1 4-.9 8.4-3.9 7.4-9.2l-7.7-34.7 10.9-2.6 8.2 37.8c2.2 9.9-4.5 19.4-14.5 20.6z" fill="#000" opacity=".15"/><path d="m1170.2 572.3 3.5 19.4 6.1-.6-3.5-20.2z" fill="#001b34"/><path d="m1175.3 588.5c3.37 0 6.1-2.731 6.1-6.1s-2.73-6.1-6.1-6.1-6.1 2.731-6.1 6.1 2.73 6.1 6.1 6.1z" fill="#4d61fc"/><path d="m1175.3 587.5c2.82 0 5.1-2.283 5.1-5.1 0-2.816-2.28-5.1-5.1-5.1s-5.1 2.284-5.1 5.1c0 2.817 2.28 5.1 5.1 5.1z" fill="#fff"/><path d="m1178.7 582.9-3.5-.2-2.5-1.8c-.1-.1-.2-.3-.1-.4s.3-.2.4-.1l2.4 1.7 3.3.2c.2 0 .3.1.3.3 0 .1-.1.3-.3.3z" fill="#001b34"/><path d="m1098.2 516.2-.6-17.3c0-1.1-1.5-1.4-2-.4l-18 36.5 8.1 5z" fill="#000" opacity=".3"/><path d="m1212.6 681.1 2.5 314.6h11.5l-1.5-314.6z" fill="#000" opacity=".2"/><path d="m1226.5 986.9.1 8.8h-31.3l-.8-8.8z" fill="#4d61fc"/><path d="m1215.1 986.9v8.8h11.5l-.1-8.8z" fill="#000" opacity=".2"/><g fill="#000" opacity=".15"><path d="m1179.8 826.4-20.6-24.5 1.4-113.7c.2-2.7 2.6-3.1 3.2-3.1-8 .1-14.4 6.5-14.5 14.5l-1.1 108.1 33.4 38.3z" opacity=".15"/><path d="m1226 881.3.1 15.6 32.8 37.6 6.4-6.5z" opacity=".15"/></g><path d="m938.4 1041.2-45.2-5.6c-5.1-.6-8.8-5.3-8.2-10.5l11.6-93.9 63.9 7.9-11.6 93.9c-.7 5.2-5.4 8.9-10.5 8.2z" fill="#3f4249"/><path d="m940.9 936.7-11.6 93.9c-.6 5.1-5.3 8.8-10.5 8.2l19.6 2.4c5.1.6 9.8-3 10.5-8.2l11.6-93.9z" fill="#000" opacity=".4"/><path d="m960.51 939.182-63.917-7.896-2.084 16.873 63.917 7.895z" fill="#b2b6bb"/><path d="m254.8 1043.4h1114.9c.2 0 .4-.2.4-.4s-.2-.4-.4-.4h-1114.9c-.2 0-.4.2-.4.4s.2.4.4.4z" fill="#b1b5ba"/><path d="m389.199 391s-16.4 6.4-13.1 28.3c1.3 8.2-6.7 9.2-11.1 12.7-11.4 9-6 29.1 0 29.5l73.7 39.5s28.8-39.5 19.1-58.7c-4.3-8.5-3.2-9.6-.3-17.8 4.5-12.5-4-18.5-4-18.5l-4.5-1-16.5-37-31.5 21.5-4.8.2z" fill="#21252b"/><path d="m383.8 990c1 3.9 1.3 5.4 1.1 9.2l.1 25.9c-.1 4.5-1.4 8.9-3.7 12.8l-.5.9c-1.3 2.3-3.8 3.7-6.4 3.7h-7.4c-3.4 0-6.4-2.3-7.2-5.6-1-3.8-1.1-7.8-.4-11.7l6.3-27.8c.5-2.4 1-5 2.3-7.5h15.8z" fill="#4d61fc"/><path d="m484.399 929.1 4.6 49.5c.3 5.8 1.8 9.4 3.5 11.8l18 36.6-5 6.9-19.6-9.8-17.4-31.5c0-5.4-.5-8.6-1.5-15.8l-8.6-53.4z" fill="#fc9d9d"/><path d="m489.5 995.201c-2-2.9-4.5-9.901-5.1-13.101l-6-18.399c-.2-1.3-1.2-2.3-2.5-2.5l-11.9-1.601-.2-2.6h23.2l2 21.6c.4 3.7 1.3 8.601 3.5 11.801l18 36.599-3.1 5.1z" fill="#000" opacity=".15"/><path d="m520.799 1033.3-10.3-6.2c-7.4 1.2-15-1.6-19.8-7.4l-22.3-27c-4 8.6-5.4 18.2-4.1 27.6l3.2 22.4h2.6l.7-23c.1-1.7 2.2-2.4 3.2-1.1l13.6 16.6c3.9 4.7 9.7 7.5 15.8 7.5h21.2c1.7 0 2.8-1.7 2.1-3.2-1.1-2.8-3.2-5-5.9-6.2z" fill="#4d61fc"/><path d="m384.899 978.3c-1.1 9.3-1.6 18.7-1.4 28.1l.2 11.2c-.2 4.9-4.2 8.8-9.1 8.8h-1.6c-5.6 0-9.8-4.9-9-10.4l2.6-13.3c1.3-6.7 1.8-13.6 1.4-20.5l-2.5-45.2 23.3.4z" fill="#fc9d9d"/><path d="m471.299 613.5 3.301 39.9 3 33.4c1.6 17.8 2.6 35.6 3.1 53.5l7.799 216.8h-25.499l-43.701-286c-.3-1.9-1.9-3.3-3.9-3.3-2.1 0-3.799 1.6-3.899 3.6l-23 285.6-23.101-.2-11.5-206.1c-2.4-44 .9-88.1 9.9-131.1l1.301-6.1z" fill="#3f4249"/><path d="m386.799 957s-2.8 29-3 32.9v.1c-.3 5.5-.5 10.9-.4 16.4l.2 11.2c-.2 4.8-4 8.6-8.7 8.8 4.3-3.3 3.9-8.7 4-12.7l.7-49.1c0-1.6-1.1-3-2.7-3.3l-10.4-1.9-.1-2.3z" fill="#000" opacity=".15"/><path d="m415.2 667.7c-1 0-2 .4-2.7 1s-1.2 1.6-1.2 2.6l-22.8 285.7-8.3-.1 14-269.3c.6-11.2 9.8-19.9 21-19.9z" fill="#000" opacity=".2"/><path d="m472.1 623.3 2.5 30.1 1.8 20.8c2.3 26.2 3.8 52.5 4.5 78.8l7.5 204.1h-11.4l-14.7-284.2-2.6-49.3h11.5l.5-.1z" fill="#000" opacity=".2"/><path d="m473.1 467.7 31 62.2 68.7-2.1-1.6 17.2-68.6 13.5c-7.7 1.4-15.6-1.8-20.1-8.2l-23.5-32.8" fill="#4d61fc"/><path d="m598.1 520.6 11.1-1.5 13.3 3.8c1.1.4 1.6 1.5 1 2.4-.4.6-1.3.9-2.1.7l-12.8-2.4-7.9 2.6 7.9-2.6 11.1 3.2c.9.3 1.3 1.2.9 1.9-.3.6-1.2.9-1.9.7l-11.2-2.2-11.5 3.6 11.5-3.6 7.9 3.2c.6.3.7.9.3 1.4-.3.4-.9.5-1.3.4l-9.2-2.3-10.9 2.7z" fill="#966363"/><path d="m598.1 520.6 11.1-1.5 13.3 3.8c1.1.4 1.6 1.5 1 2.4-.4.6-1.3.9-2.1.7l-12.8-2.4-7.9 2.6 7.9-2.6 11.1 3.2c.9.3 1.3 1.2.9 1.9-.3.6-1.2.9-1.9.7l-11.2-2.2-11.5 3.6 11.5-3.6 7.9 3.2c.6.3.7.9.3 1.4-.3.4-.9.5-1.3.4l-9.2-2.3-10.9 2.7z" fill="#000" opacity=".15"/><path d="m598.8 517.1-16.4 9.5c-1 .6-2 .9-3.1.9l-6.4.3-1.6 17.2 5.3-1.1c.9-.2 1.8-.2 2.7 0l1.4.3c5.7 1.4 11.3.8 16.2-2h.1c.7-.4 1.4-.6 2.2-.7 2.8-.3 9.8-1 9.8-1 .4 0 .7-.3.7-.7 0-1.8-1.5-3.3-3.6-3.6l-4.9-.7c-2.6-.4-4.1-2.8-2.9-4.8l4.9-8.6c.3-.5.8-.9 1.5-1.1l17.4-4.5c.8-.2 1.2-.8 1.1-1.5-.1-.8-1-1.4-2-1.3-4.4.6-17.9 2.5-21.1 3-.5 0-.9.1-1.3.4z" fill="#966363"/><path d="m504.1 529.8-5.5.2c-1.3 0-2.5-.8-2.9-2l-9.1-33.4z" fill="#000" opacity=".15"/><path d="m362.8 456.5 30.4-6.2 49.5.5 18.2 4.9c11.3 3.6 17 13.5 16.9 25.4l-1.7 8.6 4.8 16.3c2.7 10.5-.8 16.6-8.2 25.1-2.3 2.7-3.5 3.8-4.4 8.9 0 0-4.4 16.7-5.2 23.6-3.1 27.1-2 47.4-2 47.4l-93.5-.2c-4.3 0-6.2-4.6-4.1-8.4 0 0 6.4-12.7 7.5-23.4 3.9-34.9-6.1-76.4-6.1-76.4l-19.6-21.7c-.6-11.3 6.8-21.9 17.5-24.4z" fill="#4d61fc"/><path d="m426.7 576.6 11.2-2.2 2.5 2.5-2.9 3.5z" fill="#966363"/><path d="m575.5 540.6c1.3-.3 2.6-.2 3.9.2 3.3 1.1 10.7 3 17.7 1.2-.1 0-.2.1-.3.1h-.1c-4.8 2.9-10.5 3.5-16.2 2l-1.4-.3c-.9-.2-1.8-.2-2.7 0l-26.2 5.2 24.9-4.9z" fill="#000" opacity=".15"/><path d="m428.699 595.8-15.6-3.3-45.4-3.8-.5.2c-2.2 6.3-3.1 8.5-4.8 12.6l6.7.2c10.4.2 20.7-.3 31-1.5 9.5-1.1 19.2-1 28.7.3v-4.7z" fill="#000" opacity=".15"/><path d="m461.2 621.6-1-10.2-94.3-.2-2.6 10.4z" fill="#21252b"/><path d="m417.9 576.4-3.9-1.1-6.7 16.6 4.5.4z" fill="#000" opacity=".6"/><path d="m396.399 459.4-12-7.3 7-1.4 49.5.5 4.8 1.3-11.9 7.1c-11.4 6.9-25.8 6.8-37.4-.2z" fill="#000" opacity=".6"/><path d="m400.1 412.3-2.5 32.1c-.1 2.7-1.9 5-4.5 5.7l-3.8 1 8.7 5.4c10.3 6.4 23.2 6.5 33.6.3l9.4-5.6-4.8-1.3c-2.4-.7-4.2-2.7-4.4-5.2l-1.6-36.4z" fill="#966363"/><path d="m420.6 437.2-1.6-.2c-11.3-.9-19.7-10.7-18.9-22l2.2-28.7c.3-3.8 3.6-6.6 7.3-6.3l26.8 2.1c4.9.4 8.6 4.7 8.2 9.5l-2.1 26.7c-.8 11.3-10.6 19.7-21.9 18.9z" fill="#966363"/><path d="m422.2 408.4c1.215 0 2.2-.985 2.2-2.2s-.985-2.2-2.2-2.2-2.2.985-2.2 2.2.985 2.2 2.2 2.2z" fill="#21252b"/><path d="m423.4 407.3c.277 0 .5-.224.5-.5s-.223-.5-.5-.5c-.276 0-.5.224-.5.5s.224.5.5.5z" fill="#fff"/><path d="m439.3 410c1.215 0 2.2-.985 2.2-2.2s-.985-2.2-2.2-2.2-2.2.985-2.2 2.2.985 2.2 2.2 2.2z" fill="#21252b"/><path d="m440.3 408.9c.276 0 .5-.224.5-.5s-.224-.5-.5-.5-.5.224-.5.5.224.5.5.5z" fill="#fff"/><path d="m429.8 419.7-3-.1c-.4 0-.6-.3-.6-.7s.3-.6.7-.6l3 .1c.7 0 1.4-.5 1.4-1.3s-.5-1.4-1.3-1.4c-.4 0-.6-.3-.6-.7s.3-.6.7-.6c1.5.1 2.6 1.3 2.5 2.8-.1 1.4-1.3 2.5-2.8 2.5z" fill="#000" opacity=".09"/><path d="m453.6 406c-3-2.6-1.3-6.8-1.3-6.8v.1c5.5-22.9-9.1-37.5-22.3-40.2-7.5-1.5-27.6-.6-33.9 22.3-.9 3.3-1.2 6.9-7 9.6 0 0 3.5 12 4.4 16.4.4 1.9 4.6-5.2 6.3-5.9.2-.1 1.4 2.1 2.2 3.5.5.9 1.8.9 2.2 0l.2-.3c1.4-3.2 2.3-6.6 2.6-10.1 9.7-2.3 9.7-12.1 9.7-12.1 8.6 20 27.7 15 27.7 15l-1 10.7s2.1-1.6 4.3-4.5l3.1 2.8z" fill="#21252b"/><path d="m401.5 416.3s-9.8.4-11.5-9.3c-1.7-9.8 10.3-11.1 11.7-1.3l.9 10.7z" fill="#966363"/><path d="m393.2 402c1.1-.7 2.1-.9 3-.7s1.7.9 2.3 2 1 2.4 1 3.8v1.1c0 .8-1.3 1-1.3.1 0-1.1 0-1.1 0-1.1 0-.3-.1-2.1-.8-3.2-.4-.8-.9-1.2-1.5-1.4-.6-.1-1.2 0-2 .5-.3.2-.7.1-.9-.2-.2-.4-.1-.8.2-.9z" fill="#000" opacity=".3"/><path d="m440.699 401.4c-2.8-.1-5.4 1.1-7.1 3-2.3-1.2-4.5-.8-5.5-.6-1.3-3-4.3-5.1-7.7-5.3-4.9-.2-9.1 3.6-9.3 8.5s3.6 9.1 8.5 9.3 9.1-3.6 9.3-8.5c0-1-.1-2-.4-3 .9-.2 2.6-.4 4.4.5-.9 1.3-1.4 2.9-1.5 4.6-.2 4.9 3.6 9.1 8.5 9.3s9.1-3.6 9.3-8.5c.3-4.9-3.5-9-8.5-9.3zm-21 13.9c-4.3-.2-7.6-3.8-7.4-8.1s3.8-7.6 8.1-7.4 7.6 3.8 7.4 8.1c-.1 4.2-3.8 7.6-8.1 7.4zm20.3 2.8c-4.3-.2-7.6-3.8-7.4-8.1s3.8-7.6 8.1-7.4 7.6 3.8 7.4 8.1-3.8 7.6-8.1 7.4z" fill="#fff"/><path d="m399 414.7c1.049 0 1.9-.851 1.9-1.9s-.851-1.9-1.9-1.9c-1.05 0-1.9.851-1.9 1.9s.85 1.9 1.9 1.9z" fill="#4d61fc"/><path d="m399.6 414.5c-1.2-.1-2.1-1-2-2.2 0-.4.2-.8.4-1.1-.5.3-.9.9-.9 1.6 0 1.1.8 2 1.9 2 .4 0 .8-.1 1.1-.3-.2-.1-.3 0-.5 0z" fill="#000" opacity=".15"/><path d="m399.6 416.2 3.2.3-4.2 6.3z" fill="#000" opacity=".15"/><path d="m431.4 435-.4.2c-3.3 1.4-6.9 1.7-10.7 1.4-.8-.1-1.6-.2-2.4-.3-.3-.1-.6-.1-.9-.2-.1 0-.1 0-.2 0-.5-.1-.9-.2-1.4-.4-.2-.1-.4-.1-.6-.2-3.1-1-5.4-2.3-6.9-3.5-.3-.2-.6-.1-.8.1-.2.3-.1.6.1.8 1.8 1.4 4.8 3.1 9 4.1 2 1.9 5.5 4.4 10.3 4.9 1.6.2 3.1.2 4.6 0l.7-.1z" fill="#000" opacity=".15"/><path d="m431.1 423.3c.3 0 .4.4.3.6-1.4 2-3.7 3.2-6.1 2.9s-4.4-2-5.2-4.3c-.1-.3.1-.6.4-.5z" fill="#fff"/><path d="m577 527.6-4.2.2-1.6 17.2 3.9-.8z" fill="#000" opacity=".6"/><path d="m471 531.6c7.3-8.5 8.5-16.9 5.7-27.4l-3-10.9-2.5-11.8c0-.1 0-.2 0-.2 0-.2.2-.4.4-.5.3-.1.6.1.7.4l3.1 13.9 1.5 4.7s11.9 17 8.2 29.9c-1.4 4.7-2.2 7.8.7 11.8l5.2 7.7c4.7 4.3 11.7 3.2 11.7 3.2l68.7-11.1-.4 3.8-64.1 12.7h.1l-4.6.8c-6.7 1.2-13.5-1-18.1-5.8-.7-.7-1.4-1.5-2-2.4l-12.3-17.6c.3-.4.7-.8 1-1.2z" fill="#000" opacity=".15"/><path d="m442.1 401c-16.9-.2-23.5-15.4-23.6-15.6-.1-.4 0-.8.4-.9.4-.2.8 0 .9.4.1.1 6.4 14.5 22.3 14.7.4 0 .7.3.7.7s-.3.7-.7.7z" fill="#21252b"/><path d="m417.999 474.8c-40.3 0-71.1-6.1-71.6-6.2l1.2-2.1s0 0 1.5-2.1c8.3 1.5 63.6 11 123.2 1.6l2.2 4.4-.7.2c-19.5 3.1-38.6 4.2-55.8 4.2z" fill="#fff" opacity=".09"/><path d="m437.6 544.1c-36.4 0-68.2-5.4-68.6-5.5l-.5-4.7c.5.1 53.1 8.8 98.6 4.2l-1.1 4.6c-9.7 1.1-18.8 1.4-28.4 1.4z" fill="#fff" opacity=".09"/><path d="m437.5 573.9c-36.4 0-67.1-5.2-67.5-5.3l.1-4.7c.5.1 45.5 8.9 91 4.3l.5 4.6c-9.6 1.1-14.4 1.1-24.1 1.1z" fill="#fff" opacity=".09"/><path d="m435.1 601.6c-36.4 0-70-5.6-70.5-5.6l1.8-4.8c.5.1 51.9 9.1 97.5 4.5l.5 4.6c-9.7.9-19.6 1.3-29.3 1.3z" fill="#fff" opacity=".09"/><path d="m372 566.8 39 7.6" opacity=".15" stroke="#000" stroke-linecap="round" stroke-miterlimit="10" stroke-width="1.1756"/><path d="m426.7 576.6 11.2-2.2 2.5 2.5-2.9 3.5z" fill="#000" opacity=".15"/><path d="m344.7 472.7 9.5.7c7.6 12.6 12.1 22.6 11.7 37.3l.7 5.8-18.4 46.5 67 12.8-7.9 16-80-5.7c-8.6-.5-14.7-9.8-11.5-18.4z" fill="#4d61fc"/><path d="m413.9 615.7 34.4-59.4c.8-1.3 2.4-1.9 3.9-1.4l48.5 16.4c1.9.6 2.7 2.7 1.7 4.4l-32.4 56.3c-.7 1.2-2.2 1.9-3.7 1.5l-50.5-13.3c-1.9-.6-2.9-2.8-1.9-4.5z" fill="#3f4249"/><path d="m413.9 615.7 34.4-59.4c.8-1.3 2.4-1.9 3.9-1.4l48.5 16.4c1.9.6 2.7 2.7 1.7 4.4l-32.4 56.3c-.7 1.2-2.2 1.9-3.7 1.5l-50.5-13.3c-1.9-.6-2.9-2.8-1.9-4.5z" fill="#000" opacity=".8"/><path d="m415.6 616.2 34.4-59.4c.8-1.3 2.4-1.9 3.9-1.4l48.5 16.4c1.9.6 2.7 2.7 1.7 4.4l-32.4 56.3c-.7 1.2-2.2 1.9-3.7 1.5l-50.5-13.3c-1.9-.6-2.9-2.7-1.9-4.5z" fill="#21252b"/><path d="m465.7 585.3c.7-.7.9-1.5.7-2.2 1.5-.5 3.1-.6 4.4-.2 2.2.8 2.7 2.7 1.1 4.4s-4.7 2.4-6.9 1.7c-1.3-.5-2-1.4-2-2.4 1-.1 2-.6 2.7-1.3z" fill="#3f4249"/><path d="m498.294 578.684c1.257-.695 1.886-1.963 1.405-2.833-.48-.87-1.889-1.013-3.146-.318-1.257.694-1.886 1.962-1.405 2.833.481.87 1.889 1.012 3.146.318z" fill="#000" opacity=".4"/><path d="m498.688 578.877c1.256-.695 1.886-1.963 1.405-2.833s-1.889-1.013-3.146-.318c-1.257.694-1.886 1.962-1.406 2.832.481.871 1.89 1.013 3.147.319z" fill="#3f4249"/><path d="m498.386 578.362c.822-.454 1.228-1.293.908-1.873-.321-.58-1.247-.682-2.069-.228s-1.228 1.292-.907 1.872c.32.58 1.246.683 2.068.229z" fill="#000" opacity=".5"/><path d="m498.801 577.3c.3-.6-.1-1.2-.7-1.3h.3c.8 0 1.3.6 1 1.3s-1.2 1.3-2 1.3c-.1 0-.2 0-.3 0 .7-.1 1.5-.6 1.7-1.3z" fill="#000" opacity=".4"/><path d="m417.9 576.4 1.4.3c.3.1.6.1 1 .1l16.6-.3c1.7 0 3.4.3 5.1.9l19.1 7c.8.3 1.3 1.2 1.1 2-.2.9-1.2 1.4-2.1 1.2l-18.3-4.8 17.4 9.5c.9.5 1.2 1.5.7 2.4-.4.8-1.4 1.2-2.3.9l-17.7-7 16 6.3c.9.3 1.3 1.3 1 2.2s-1.2 1.4-2.2 1.2l-16.3-4.4 14 3.8c.8.2 1.2 1 1 1.7-.2.8-.9 1.3-1.7 1.1l-37.4-7.9-2.6-.2z" fill="#966363"/><path d="m455.9 594.901-14.9-5.901" opacity=".15" stroke="#000" stroke-linecap="round" stroke-miterlimit="10" stroke-width="1.1756"/><path d="m438.4 593.8 14.1 3.8" opacity=".15" stroke="#000" stroke-linecap="round" stroke-miterlimit="10" stroke-width="1.1756"/><path d="m453.5 599.3c-.2.8-.9 1.3-1.7 1.1l-37.4-7.9-2.6-.2 1.3-3.3z" fill="#000" opacity=".15"/><path d="m344.2 562.3 4 .8 16.5-41.9 1.4-3.5c-1.3-6-3-13.8-4-18.6-.2-1.1-1.8-1.2-2.2-.1l-18.5 58.7c-.6 2 .7 4.2 2.8 4.6z" fill="#000" opacity=".15"/><path d="m410.999 574.4-14.6-2.8" opacity=".15" stroke="#000" stroke-linecap="round" stroke-miterlimit="10" stroke-width="1.1756"/><path d="m391.7 570.7-19.7-3.9" opacity=".15" stroke="#000" stroke-linecap="round" stroke-miterlimit="10" stroke-width="1.1756"/><path d="m426.7 576.6 11.2-2.2 2.5 2.5-2.9 3.5z" fill="#000" opacity=".15"/><path d="m413.9 615.7 34.4-59.4c.8-1.3 2.4-1.9 3.9-1.4l48.5 16.4c1.9.6 2.7 2.7 1.7 4.4l-32.4 56.3c-.7 1.2-2.2 1.9-3.7 1.5l-50.5-13.3c-1.9-.6-2.9-2.8-1.9-4.5z" fill="#3f4249"/><path d="m413.9 615.7 34.4-59.4c.8-1.3 2.4-1.9 3.9-1.4l48.5 16.4c1.9.6 2.7 2.7 1.7 4.4l-32.4 56.3c-.7 1.2-2.2 1.9-3.7 1.5l-50.5-13.3c-1.9-.6-2.9-2.8-1.9-4.5z" fill="#000" opacity=".8"/><path d="m415.6 616.2 34.4-59.4c.8-1.3 2.4-1.9 3.9-1.4l48.5 16.4c1.9.6 2.7 2.7 1.7 4.4l-32.4 56.3c-.7 1.2-2.2 1.9-3.7 1.5l-50.5-13.3c-1.9-.6-2.9-2.7-1.9-4.5z" fill="#21252b"/><path d="m465.7 585.3c.7-.7.9-1.5.7-2.2 1.5-.5 3.1-.6 4.4-.2 2.2.8 2.7 2.7 1.1 4.4s-4.7 2.4-6.9 1.7c-1.3-.5-2-1.4-2-2.4 1-.1 2-.6 2.7-1.3z" fill="#3f4249"/><path d="m498.294 578.684c1.257-.695 1.886-1.963 1.405-2.833-.48-.87-1.889-1.013-3.146-.318-1.257.694-1.886 1.962-1.405 2.833.481.87 1.889 1.012 3.146.318z" fill="#000" opacity=".4"/><path d="m498.688 578.877c1.256-.695 1.886-1.963 1.405-2.833s-1.889-1.013-3.146-.318c-1.257.694-1.886 1.962-1.406 2.832.481.871 1.89 1.013 3.147.319z" fill="#3f4249"/><path d="m498.386 578.362c.822-.454 1.228-1.293.908-1.873-.321-.58-1.247-.682-2.069-.228s-1.228 1.292-.907 1.872c.32.58 1.246.683 2.068.229z" fill="#000" opacity=".5"/><path d="m498.801 577.3c.3-.6-.1-1.2-.7-1.3h.3c.8 0 1.3.6 1 1.3s-1.2 1.3-2 1.3c-.1 0-.2 0-.3 0 .7-.1 1.5-.6 1.7-1.3z" fill="#000" opacity=".4"/><path d="m417.9 576.4 1.4.3c.3.1.6.1 1 .1l16.6-.3c1.7 0 3.4.3 5.1.9l19.1 7c.8.3 1.3 1.2 1.1 2-.2.9-1.2 1.4-2.1 1.2l-18.3-4.8 17.4 9.5c.9.5 1.2 1.5.7 2.4-.4.8-1.4 1.2-2.3.9l-17.7-7 16 6.3c.9.3 1.3 1.3 1 2.2s-1.2 1.4-2.2 1.2l-16.3-4.4 14 3.8c.8.2 1.2 1 1 1.7-.2.8-.9 1.3-1.7 1.1l-37.4-7.9-2.6-.2z" fill="#966363"/><path d="m455.9 594.901-14.9-5.901" opacity=".15" stroke="#000" stroke-linecap="round" stroke-miterlimit="10" stroke-width="1.1756"/><path d="m438.4 593.8 14.1 3.8" opacity=".15" stroke="#000" stroke-linecap="round" stroke-miterlimit="10" stroke-width="1.1756"/><path d="m453.5 599.3c-.2.8-.9 1.3-1.7 1.1l-37.4-7.9-2.6-.2 1.3-3.3z" fill="#000" opacity=".15"/><path d="m366.1 517.6-1.4 3.5-8.6 21.9-5.4 13.7-1.3 3.2-.7 1.8-.5 1.3-2.9-.6-1.1-.2c-1.8-.4-3-1.9-2.9-3.6 0-.3.1-.6.1-1l5.6-17.6 1.4-4.4 8.8-28 1.3-4.3 1.4-4.4c.3-1.1 1.9-1 2.2.1.6 2.7 1.4 6.3 2.2 10l.2.7c.5 2.8 1.1 5.5 1.6 7.9z" fill="#000" opacity=".15"/><g fill="#fff"><path d="m364.4 509.8-1.8-.4c-9.4-2.6-23.6-9.2-25.9-10.3l.7-2.2.7-2.2c2 1 16.3 7.8 25.3 10.3z" opacity=".09"/><path d="m357.7 538.7-1.6 4.3c-8.3-2.3-24-8.5-29.6-10.7l1.4-4.4c5.2 2 21.6 8.5 29.8 10.8z" opacity=".09"/><path d="m350.7 556.8-1.3 3.2-.7 1.8c-1.1.2-2.2.4-3.4.7-10.5 2.3-25 6.5-30.2 8 .1-.9.4-1.8.7-2.8l.7-2.5c5.8-1.7 16.1-4.6 24.8-6.6 3.5-.8 6.8-1.4 9.4-1.8z" opacity=".09"/><path d="m365.099 566.3c-3.2 5.6-8.3 15.2-11.7 21.8l-5-.4c3.1-6.1 8.3-16 11.9-22.3z" opacity=".09"/><path d="m396.1 572.2c-2.9 5.7-6.5 13.1-8.9 18.3l-5-.4c2.3-4.9 6-12.5 9.2-18.8.1 0 0 0 4.7.9z" opacity=".09"/><path d="m477.4 507.2-1.1-4.7 10.9-6.3 2.3 4z" opacity=".09"/><path d="m503.1 527.8-21.7 21-2.7-3.8 22.2-21.5z" opacity=".09"/><path d="m525.7 529.2v24.8l-4.6.9v-25.6z" opacity=".09"/><path d="m555.9 528.3-3.3 20.3-4.6 1 3.3-21.2z" opacity=".09"/><path d="m425.999 509.5c-32.9 0-62.3-4.1-62.7-4.2l-.9-4.6c.7.1 70 9.6 113.4-.4l1 4.5c-15.2 3.5-33.4 4.7-50.8 4.7z" opacity=".09"/></g><path d="m685.7 495.4-10.1-3.7-.4 1c-25.3-3.9-50.6 10.3-59.7 35.3-9.1 24.9 1 52.2 22.8 65.5l-.4 1 10.1 3.7c28.4 10.4 59.8-4.2 70.2-32.6 10.5-28.3-4.1-59.8-32.5-70.2z" fill="#4d61fc"/><path d="m656.801 597.8c30.21 0 54.7-24.49 54.7-54.7s-24.49-54.7-54.7-54.7-54.7 24.49-54.7 54.7 24.49 54.7 54.7 54.7z" fill="#4d61fc"/><path d="m656.801 597.8c30.21 0 54.7-24.49 54.7-54.7s-24.49-54.7-54.7-54.7-54.7 24.49-54.7 54.7 24.49 54.7 54.7 54.7z" fill="#fff" opacity=".4"/><path d="m639.4 561.1-11-23.7c-.6-1.3 0-2.8 1.2-3.4l6.2-2.9c1.3-.6 2.8 0 3.4 1.2l7.1 15.2 36.7-17c1.3-.6 2.8 0 3.4 1.2l2.9 6.2c.6 1.3 0 2.8-1.2 3.4l-45.2 21c-1.4.7-2.9.1-3.5-1.2z" fill="#fff"/><path d="m609.6 539.7c0 .4-.3.7-.7.7 0 0-6.9.7-9.8 1-.4 0-.9.1-1.3.3v-9.5c0 1.6 1.4 3 3.3 3.3l4.9.7c1 .1 1.9.6 2.5 1.2s1.1 1.4 1.1 2.3z" fill="#966363"/></svg>